<?xml version="1.0" encoding="UTF-8" standalone="no"?>
<!DOCTYPE svg PUBLIC "-//W3C//DTD SVG 1.1//EN"
 "http://www.w3.org/Graphics/SVG/1.1/DTD/svg11.dtd">
<!-- Generated by graphviz version 12.1.2 (0)
 -->
<!-- Title: DT Pages: 1 -->
<svg width="530pt" height="1314pt"
 viewBox="0.00 0.00 529.86 1313.89" xmlns="http://www.w3.org/2000/svg" xmlns:xlink="http://www.w3.org/1999/xlink">
<g id="graph0" class="graph" transform="scale(1 1) rotate(0) translate(4 1309.89)">
<title>DT</title>
<polygon fill="white" stroke="none" points="-4,4 -4,-1309.89 525.86,-1309.89 525.86,4 -4,4"/>
<!-- 0 -->
<g id="node1" class="node">
<title>0</title>
<ellipse fill="none" stroke="black" cx="58.6" cy="-667.13" rx="18" ry="18"/>
<text text-anchor="middle" x="58.6" y="-662.08" font-family="Times,serif" font-size="14.00">0</text>
</g>
<!-- 1 -->
<g id="node2" class="node">
<title>1</title>
<ellipse fill="none" stroke="black" cx="175.73" cy="-1219.13" rx="18" ry="18"/>
<text text-anchor="middle" x="175.73" y="-1214.08" font-family="Times,serif" font-size="14.00">1</text>
</g>
<!-- 0&#45;&gt;1 -->
<g id="edge2" class="edge">
<title>0&#45;&gt;1</title>
<path fill="none" stroke="black" d="M59.76,-685.59C60.6,-758.69 65.61,-1027.77 94.6,-1107.13 107.66,-1142.89 135.48,-1177.5 154.64,-1198.56"/>
<polygon fill="black" stroke="black" points="151.84,-1200.68 161.22,-1205.61 156.96,-1195.91 151.84,-1200.68"/>
<text text-anchor="middle" x="114.1" y="-1174.59" font-family="Times,serif" font-size="14.00">0&#45;9</text>
</g>
<!-- 4 -->
<g id="node5" class="node">
<title>4</title>
<ellipse fill="none" stroke="black" cx="175.73" cy="-1118.13" rx="18" ry="18"/>
<text text-anchor="middle" x="175.73" y="-1113.08" font-family="Times,serif" font-size="14.00">4</text>
</g>
<!-- 0&#45;&gt;4 -->
<g id="edge9" class="edge">
<title>0&#45;&gt;4</title>
<path fill="none" stroke="black" d="M59.68,-685.52C60.24,-751.44 64.35,-975.4 94.6,-1039.13 107.08,-1065.43 132.19,-1087.88 150.99,-1102.05"/>
<polygon fill="black" stroke="black" points="148.77,-1104.77 158.92,-1107.8 152.87,-1099.1 148.77,-1104.77"/>
<text text-anchor="middle" x="114.1" y="-1089.66" font-family="Times,serif" font-size="14.00">&quot;</text>
</g>
<!-- 7 -->
<g id="node8" class="node">
<title>7</title>
<ellipse fill="none" stroke="black" cx="175.73" cy="-1048.13" rx="18" ry="18"/>
<ellipse fill="none" stroke="black" cx="175.73" cy="-1048.13" rx="22" ry="22"/>
<text text-anchor="middle" x="175.73" y="-1043.08" font-family="Times,serif" font-size="14.00">7</text>
</g>
<!-- 0&#45;&gt;7 -->
<g id="edge15" class="edge">
<title>0&#45;&gt;7</title>
<path fill="none" stroke="black" d="M60.03,-685.48C61.66,-743.65 68.7,-923.06 94.6,-974.13 106.51,-997.61 129.11,-1017.41 147.28,-1030.6"/>
<polygon fill="black" stroke="black" points="145.11,-1033.36 155.32,-1036.2 149.11,-1027.61 145.11,-1033.36"/>
<text text-anchor="middle" x="114.1" y="-1022.06" font-family="Times,serif" font-size="14.00"> + </text>
</g>
<!-- 8 -->
<g id="node9" class="node">
<title>8</title>
<ellipse fill="none" stroke="black" cx="175.73" cy="-985.13" rx="18" ry="18"/>
<ellipse fill="none" stroke="black" cx="175.73" cy="-985.13" rx="22" ry="22"/>
<text text-anchor="middle" x="175.73" y="-980.08" font-family="Times,serif" font-size="14.00">8</text>
</g>
<!-- 0&#45;&gt;8 -->
<g id="edge17" class="edge">
<title>0&#45;&gt;8</title>
<path fill="none" stroke="black" d="M60.78,-685.44C64.15,-734.41 74.94,-867.32 94.6,-906.13 107.01,-930.62 129.93,-952.02 148.09,-966.35"/>
<polygon fill="black" stroke="black" points="145.79,-969 155.87,-972.26 150.03,-963.43 145.79,-969"/>
<text text-anchor="middle" x="114.1" y="-956.41" font-family="Times,serif" font-size="14.00"> &#45; </text>
</g>
<!-- 9 -->
<g id="node10" class="node">
<title>9</title>
<ellipse fill="none" stroke="black" cx="175.73" cy="-921.13" rx="18" ry="18"/>
<ellipse fill="none" stroke="black" cx="175.73" cy="-921.13" rx="22" ry="22"/>
<text text-anchor="middle" x="175.73" y="-916.08" font-family="Times,serif" font-size="14.00">9</text>
</g>
<!-- 0&#45;&gt;9 -->
<g id="edge19" class="edge">
<title>0&#45;&gt;9</title>
<path fill="none" stroke="black" d="M60.16,-685.48C61.83,-717.72 68.45,-785.9 94.6,-836.13 107.96,-861.79 131.31,-885.25 149.37,-900.99"/>
<polygon fill="black" stroke="black" points="146.7,-903.31 156.59,-907.1 151.22,-897.96 146.7,-903.31"/>
<text text-anchor="middle" x="114.1" y="-889.14" font-family="Times,serif" font-size="14.00">*</text>
</g>
<!-- 10 -->
<g id="node11" class="node">
<title>10</title>
<ellipse fill="none" stroke="black" cx="175.73" cy="-854.13" rx="20.13" ry="20.13"/>
<ellipse fill="none" stroke="black" cx="175.73" cy="-854.13" rx="24.13" ry="24.13"/>
<text text-anchor="middle" x="175.73" y="-849.08" font-family="Times,serif" font-size="14.00">10</text>
</g>
<!-- 0&#45;&gt;10 -->
<g id="edge21" class="edge">
<title>0&#45;&gt;10</title>
<path fill="none" stroke="black" d="M63.38,-684.89C68.35,-705.85 78.43,-741.26 94.6,-768.13 109.16,-792.32 131.39,-815.49 148.74,-831.67"/>
<polygon fill="black" stroke="black" points="145.95,-833.85 155.7,-838 150.66,-828.68 145.95,-833.85"/>
<text text-anchor="middle" x="114.1" y="-818.76" font-family="Times,serif" font-size="14.00">/</text>
</g>
<!-- 11 -->
<g id="node12" class="node">
<title>11</title>
<ellipse fill="none" stroke="black" cx="175.73" cy="-782.13" rx="20.13" ry="20.13"/>
<ellipse fill="none" stroke="black" cx="175.73" cy="-782.13" rx="24.13" ry="24.13"/>
<text text-anchor="middle" x="175.73" y="-777.08" font-family="Times,serif" font-size="14.00">11</text>
</g>
<!-- 0&#45;&gt;11 -->
<g id="edge23" class="edge">
<title>0&#45;&gt;11</title>
<path fill="none" stroke="black" d="M69.67,-681.48C76.33,-690.61 85.49,-702.49 94.6,-712.13 110.93,-729.42 131.1,-747.02 147.12,-760.25"/>
<polygon fill="black" stroke="black" points="144.87,-762.94 154.84,-766.54 149.3,-757.51 144.87,-762.94"/>
<text text-anchor="middle" x="114.1" y="-751.22" font-family="Times,serif" font-size="14.00">%</text>
</g>
<!-- 12 -->
<g id="node13" class="node">
<title>12</title>
<ellipse fill="none" stroke="black" cx="175.73" cy="-707.13" rx="20.13" ry="20.13"/>
<text text-anchor="middle" x="175.73" y="-702.08" font-family="Times,serif" font-size="14.00">12</text>
</g>
<!-- 0&#45;&gt;12 -->
<g id="edge25" class="edge">
<title>0&#45;&gt;12</title>
<path fill="none" stroke="black" d="M76.1,-672.86C94.2,-679.15 123.63,-689.38 145.63,-697.02"/>
<polygon fill="black" stroke="black" points="144.34,-700.28 154.93,-700.25 146.64,-693.66 144.34,-700.28"/>
<text text-anchor="middle" x="114.1" y="-695.09" font-family="Times,serif" font-size="14.00">&gt;</text>
</g>
<!-- 15 -->
<g id="node16" class="node">
<title>15</title>
<ellipse fill="none" stroke="black" cx="175.73" cy="-641.13" rx="20.13" ry="20.13"/>
<text text-anchor="middle" x="175.73" y="-636.08" font-family="Times,serif" font-size="14.00">15</text>
</g>
<!-- 0&#45;&gt;15 -->
<g id="edge30" class="edge">
<title>0&#45;&gt;15</title>
<path fill="none" stroke="black" d="M76.59,-663.29C94.51,-659.25 123.11,-652.79 144.82,-647.89"/>
<polygon fill="black" stroke="black" points="145.3,-651.37 154.28,-645.75 143.75,-644.54 145.3,-651.37"/>
<text text-anchor="middle" x="114.1" y="-661.92" font-family="Times,serif" font-size="14.00">&lt;</text>
</g>
<!-- 18 -->
<g id="node19" class="node">
<title>18</title>
<ellipse fill="none" stroke="black" cx="175.73" cy="-509.13" rx="20.13" ry="20.13"/>
<text text-anchor="middle" x="175.73" y="-504.08" font-family="Times,serif" font-size="14.00">18</text>
</g>
<!-- 0&#45;&gt;18 -->
<g id="edge35" class="edge">
<title>0&#45;&gt;18</title>
<path fill="none" stroke="black" d="M71.61,-654.27C86.88,-637.61 113.67,-607.33 133.6,-579.13 143.1,-565.69 152.49,-549.94 159.9,-536.79"/>
<polygon fill="black" stroke="black" points="162.86,-538.67 164.64,-528.22 156.74,-535.28 162.86,-538.67"/>
<text text-anchor="middle" x="114.1" y="-631.34" font-family="Times,serif" font-size="14.00">=</text>
</g>
<!-- 21 -->
<g id="node22" class="node">
<title>21</title>
<ellipse fill="none" stroke="black" cx="175.73" cy="-377.13" rx="20.13" ry="20.13"/>
<text text-anchor="middle" x="175.73" y="-372.08" font-family="Times,serif" font-size="14.00">21</text>
</g>
<!-- 0&#45;&gt;21 -->
<g id="edge40" class="edge">
<title>0&#45;&gt;21</title>
<path fill="none" stroke="black" d="M62.07,-649.16C65.9,-626.39 75,-586.71 94.6,-558.63 107.2,-540.59 121.42,-546.46 133.6,-528.13 140.29,-518.07 157.54,-449.1 167.44,-407.93"/>
<polygon fill="black" stroke="black" points="170.81,-408.9 169.73,-398.36 164,-407.27 170.81,-408.9"/>
<text text-anchor="middle" x="114.1" y="-561.83" font-family="Times,serif" font-size="14.00">!</text>
</g>
<!-- 24 -->
<g id="node25" class="node">
<title>24</title>
<ellipse fill="none" stroke="black" cx="175.73" cy="-315.13" rx="20.13" ry="20.13"/>
<ellipse fill="none" stroke="black" cx="175.73" cy="-315.13" rx="24.13" ry="24.13"/>
<text text-anchor="middle" x="175.73" y="-310.08" font-family="Times,serif" font-size="14.00">24</text>
</g>
<!-- 0&#45;&gt;24 -->
<g id="edge45" class="edge">
<title>0&#45;&gt;24</title>
<path fill="none" stroke="black" d="M60.41,-648.8C62.44,-617.94 69.59,-554.38 94.6,-507.63 106.39,-485.6 122.54,-489.54 133.6,-467.13 157.27,-419.16 131.72,-397.79 151.6,-348.13 152.3,-346.39 153.1,-344.65 153.98,-342.93"/>
<polygon fill="black" stroke="black" points="156.75,-345.13 158.9,-334.76 150.75,-341.53 156.75,-345.13"/>
<text text-anchor="middle" x="114.1" y="-510.83" font-family="Times,serif" font-size="14.00">&amp;</text>
</g>
<!-- 25 -->
<g id="node26" class="node">
<title>25</title>
<ellipse fill="none" stroke="black" cx="175.73" cy="-249.13" rx="20.13" ry="20.13"/>
<ellipse fill="none" stroke="black" cx="175.73" cy="-249.13" rx="24.13" ry="24.13"/>
<text text-anchor="middle" x="175.73" y="-244.08" font-family="Times,serif" font-size="14.00">25</text>
</g>
<!-- 0&#45;&gt;25 -->
<g id="edge47" class="edge">
<title>0&#45;&gt;25</title>
<path fill="none" stroke="black" d="M60.02,-648.78C61.43,-610.13 67.61,-518.06 94.6,-446.63 106.04,-416.35 121.92,-415.32 133.6,-385.13 150.36,-341.79 133.84,-325.07 151.6,-282.13 152.32,-280.4 153.14,-278.67 154.03,-276.95"/>
<polygon fill="black" stroke="black" points="156.79,-279.16 158.97,-268.79 150.8,-275.53 156.79,-279.16"/>
<text text-anchor="middle" x="114.1" y="-449.83" font-family="Times,serif" font-size="14.00">|</text>
</g>
<!-- 26 -->
<g id="node27" class="node">
<title>26</title>
<ellipse fill="none" stroke="black" cx="175.73" cy="-152.13" rx="20.13" ry="20.13"/>
<text text-anchor="middle" x="175.73" y="-147.08" font-family="Times,serif" font-size="14.00">26</text>
</g>
<!-- 0&#45;&gt;26 -->
<g id="edge49" class="edge">
<title>0&#45;&gt;26</title>
<path fill="none" stroke="black" d="M60.16,-648.79C61.95,-601.21 69,-470.21 94.6,-364.63 94.74,-364.04 141.61,-239.87 163.59,-181.64"/>
<polygon fill="black" stroke="black" points="166.84,-182.93 167.1,-172.34 160.29,-180.46 166.84,-182.93"/>
<text text-anchor="middle" x="114.1" y="-367.83" font-family="Times,serif" font-size="14.00">a&#45;zA&#45;Z</text>
</g>
<!-- 28 -->
<g id="node29" class="node">
<title>28</title>
<ellipse fill="none" stroke="black" cx="175.73" cy="-90.13" rx="20.13" ry="20.13"/>
<ellipse fill="none" stroke="black" cx="175.73" cy="-90.13" rx="24.13" ry="24.13"/>
<text text-anchor="middle" x="175.73" y="-85.08" font-family="Times,serif" font-size="14.00">28</text>
</g>
<!-- 0&#45;&gt;28 -->
<g id="edge53" class="edge">
<title>0&#45;&gt;28</title>
<path fill="none" stroke="black" d="M60.23,-649.01C62.84,-578.44 73.57,-322.01 94.6,-243.63 109.95,-186.41 121.82,-174.35 151.6,-123.13 152.44,-121.69 153.31,-120.24 154.22,-118.78"/>
<polygon fill="black" stroke="black" points="157.05,-120.85 159.64,-110.58 151.21,-117 157.05,-120.85"/>
<text text-anchor="middle" x="114.1" y="-246.83" font-family="Times,serif" font-size="14.00">(</text>
</g>
<!-- 29 -->
<g id="node30" class="node">
<title>29</title>
<ellipse fill="none" stroke="black" cx="175.73" cy="-24.13" rx="20.13" ry="20.13"/>
<ellipse fill="none" stroke="black" cx="175.73" cy="-24.13" rx="24.13" ry="24.13"/>
<text text-anchor="middle" x="175.73" y="-19.08" font-family="Times,serif" font-size="14.00">29</text>
</g>
<!-- 0&#45;&gt;29 -->
<g id="edge55" class="edge">
<title>0&#45;&gt;29</title>
<path fill="none" stroke="black" d="M59.44,-648.79C58.92,-566.52 59.09,-231.34 94.6,-133.63 106.5,-100.89 131.39,-69.44 150.29,-48.71"/>
<polygon fill="black" stroke="black" points="152.65,-51.31 156.93,-41.62 147.54,-46.52 152.65,-51.31"/>
<text text-anchor="middle" x="114.1" y="-136.83" font-family="Times,serif" font-size="14.00">)</text>
</g>
<!-- 1&#45;&gt;1 -->
<g id="edge3" class="edge">
<title>1&#45;&gt;1</title>
<path fill="none" stroke="black" d="M166.58,-1235.05C164.19,-1245.28 167.24,-1255.13 175.73,-1255.13 180.9,-1255.13 184.06,-1251.47 185.19,-1246.3"/>
<polygon fill="black" stroke="black" points="188.7,-1246.46 184.93,-1236.56 181.7,-1246.65 188.7,-1246.46"/>
<text text-anchor="middle" x="175.73" y="-1258.33" font-family="Times,serif" font-size="14.00">0&#45;9</text>
</g>
<!-- 2 -->
<g id="node3" class="node">
<title>2</title>
<ellipse fill="none" stroke="black" cx="400.11" cy="-1278.13" rx="18" ry="18"/>
<ellipse fill="none" stroke="black" cx="400.11" cy="-1278.13" rx="22" ry="22"/>
<text text-anchor="middle" x="400.11" y="-1273.08" font-family="Times,serif" font-size="14.00">2</text>
</g>
<!-- 1&#45;&gt;2 -->
<g id="edge4" class="edge">
<title>1&#45;&gt;2</title>
<path fill="none" stroke="black" d="M188.59,-1232.42C203.12,-1247.58 229.3,-1271.53 257.61,-1281.13 293.61,-1293.34 337.77,-1289.7 367.08,-1284.91"/>
<polygon fill="black" stroke="black" points="367.58,-1288.37 376.8,-1283.16 366.34,-1281.48 367.58,-1288.37"/>
<text text-anchor="middle" x="286.24" y="-1292.59" font-family="Times,serif" font-size="14.00">otro</text>
</g>
<!-- 3 -->
<g id="node4" class="node">
<title>3</title>
<ellipse fill="none" stroke="black" cx="286.24" cy="-1219.13" rx="18" ry="18"/>
<text text-anchor="middle" x="286.24" y="-1214.08" font-family="Times,serif" font-size="14.00">3</text>
</g>
<!-- 1&#45;&gt;3 -->
<g id="edge5" class="edge">
<title>1&#45;&gt;3</title>
<path fill="none" stroke="black" d="M194.16,-1219.13C210.93,-1219.13 236.59,-1219.13 256.4,-1219.13"/>
<polygon fill="black" stroke="black" points="256.33,-1222.63 266.33,-1219.13 256.33,-1215.63 256.33,-1222.63"/>
<text text-anchor="middle" x="228.74" y="-1222.33" font-family="Times,serif" font-size="14.00">·</text>
</g>
<!-- num -->
<g id="node31" class="node">
<title>num</title>
<polygon fill="none" stroke="black" points="515.86,-1296.13 464.61,-1296.13 464.61,-1260.13 521.86,-1260.13 521.86,-1290.13 515.86,-1296.13"/>
<polyline fill="none" stroke="black" points="515.86,-1296.13 515.86,-1290.13"/>
<polyline fill="none" stroke="black" points="521.86,-1290.13 515.86,-1290.13"/>
<text text-anchor="middle" x="493.24" y="-1273.08" font-family="Times,serif" font-size="14.00">&lt;num&gt;</text>
</g>
<!-- 2&#45;&gt;num -->
<g id="edge8" class="edge">
<title>2&#45;&gt;num</title>
<path fill="none" stroke="black" d="M422.25,-1278.13C431.44,-1278.13 442.51,-1278.13 453.11,-1278.13"/>
<polygon fill="black" stroke="black" points="452.79,-1281.63 462.79,-1278.13 452.79,-1274.63 452.79,-1281.63"/>
</g>
<!-- 3&#45;&gt;2 -->
<g id="edge6" class="edge">
<title>3&#45;&gt;2</title>
<path fill="none" stroke="black" d="M302.79,-1227.33C320.23,-1236.53 348.89,-1251.64 370.42,-1263"/>
<polygon fill="black" stroke="black" points="368.51,-1265.95 378.99,-1267.52 371.78,-1259.76 368.51,-1265.95"/>
<text text-anchor="middle" x="343.74" y="-1257.12" font-family="Times,serif" font-size="14.00">otro</text>
</g>
<!-- 3&#45;&gt;3 -->
<g id="edge7" class="edge">
<title>3&#45;&gt;3</title>
<path fill="none" stroke="black" d="M276.41,-1234.67C273.64,-1245.04 276.92,-1255.13 286.24,-1255.13 291.92,-1255.13 295.35,-1251.38 296.54,-1246.11"/>
<polygon fill="black" stroke="black" points="300.04,-1246.03 296.13,-1236.18 293.05,-1246.32 300.04,-1246.03"/>
<text text-anchor="middle" x="286.24" y="-1258.33" font-family="Times,serif" font-size="14.00">0&#45;9</text>
</g>
<!-- 4&#45;&gt;4 -->
<g id="edge10" class="edge">
<title>4&#45;&gt;4</title>
<path fill="none" stroke="black" d="M166.58,-1134.05C164.19,-1144.28 167.24,-1154.13 175.73,-1154.13 180.9,-1154.13 184.06,-1150.47 185.19,-1145.3"/>
<polygon fill="black" stroke="black" points="188.7,-1145.46 184.93,-1135.56 181.7,-1145.65 188.7,-1145.46"/>
<text text-anchor="middle" x="175.73" y="-1157.33" font-family="Times,serif" font-size="14.00">![&quot;,\]</text>
</g>
<!-- 5 -->
<g id="node6" class="node">
<title>5</title>
<ellipse fill="none" stroke="black" cx="286.24" cy="-1165.13" rx="18" ry="18"/>
<text text-anchor="middle" x="286.24" y="-1160.08" font-family="Times,serif" font-size="14.00">5</text>
</g>
<!-- 4&#45;&gt;5 -->
<g id="edge11" class="edge">
<title>4&#45;&gt;5</title>
<path fill="none" stroke="black" d="M188.45,-1131.1C196.08,-1138.71 206.67,-1147.85 217.86,-1153.13 229.91,-1158.81 244.34,-1161.82 256.74,-1163.41"/>
<polygon fill="black" stroke="black" points="256.07,-1166.86 266.37,-1164.38 256.77,-1159.89 256.07,-1166.86"/>
<text text-anchor="middle" x="228.74" y="-1163.47" font-family="Times,serif" font-size="14.00"> \ &#160;</text>
</g>
<!-- 6 -->
<g id="node7" class="node">
<title>6</title>
<ellipse fill="none" stroke="black" cx="286.24" cy="-1107.13" rx="18" ry="18"/>
<ellipse fill="none" stroke="black" cx="286.24" cy="-1107.13" rx="22" ry="22"/>
<text text-anchor="middle" x="286.24" y="-1102.08" font-family="Times,serif" font-size="14.00">6</text>
</g>
<!-- 4&#45;&gt;6 -->
<g id="edge13" class="edge">
<title>4&#45;&gt;6</title>
<path fill="none" stroke="black" d="M191.27,-1108.33C198.85,-1103.81 208.47,-1098.94 217.86,-1096.63 229.59,-1093.75 242.67,-1094.83 254.16,-1097.18"/>
<polygon fill="black" stroke="black" points="252.99,-1100.5 263.54,-1099.48 254.66,-1093.7 252.99,-1100.5"/>
<text text-anchor="middle" x="228.74" y="-1099.83" font-family="Times,serif" font-size="14.00">&quot;</text>
</g>
<!-- 5&#45;&gt;4 -->
<g id="edge12" class="edge">
<title>5&#45;&gt;4</title>
<path fill="none" stroke="black" d="M272.12,-1153.67C263.44,-1146.63 251.5,-1137.98 239.61,-1132.63 228.81,-1127.77 216.2,-1124.45 205.12,-1122.23"/>
<polygon fill="black" stroke="black" points="205.81,-1118.8 195.35,-1120.49 204.58,-1125.69 205.81,-1118.8"/>
<text text-anchor="middle" x="228.74" y="-1135.83" font-family="Times,serif" font-size="14.00">car</text>
</g>
<!-- cad -->
<g id="node32" class="node">
<title>cad</title>
<polygon fill="none" stroke="black" points="421.11,-1125.13 373.11,-1125.13 373.11,-1089.13 427.11,-1089.13 427.11,-1119.13 421.11,-1125.13"/>
<polyline fill="none" stroke="black" points="421.11,-1125.13 421.11,-1119.13"/>
<polyline fill="none" stroke="black" points="427.11,-1119.13 421.11,-1119.13"/>
<text text-anchor="middle" x="400.11" y="-1102.08" font-family="Times,serif" font-size="14.00">&lt;cad&gt;</text>
</g>
<!-- 6&#45;&gt;cad -->
<g id="edge14" class="edge">
<title>6&#45;&gt;cad</title>
<path fill="none" stroke="black" d="M308.54,-1107.13C323.45,-1107.13 343.77,-1107.13 361.38,-1107.13"/>
<polygon fill="black" stroke="black" points="361.25,-1110.63 371.25,-1107.13 361.25,-1103.63 361.25,-1110.63"/>
</g>
<!-- sum -->
<g id="node33" class="node">
<title>sum</title>
<polygon fill="none" stroke="black" points="308.11,-1067.13 258.36,-1067.13 258.36,-1031.13 314.11,-1031.13 314.11,-1061.13 308.11,-1067.13"/>
<polyline fill="none" stroke="black" points="308.11,-1067.13 308.11,-1061.13"/>
<polyline fill="none" stroke="black" points="314.11,-1061.13 308.11,-1061.13"/>
<text text-anchor="middle" x="286.24" y="-1044.08" font-family="Times,serif" font-size="14.00">&lt;sum&gt;</text>
</g>
<!-- 7&#45;&gt;sum -->
<g id="edge16" class="edge">
<title>7&#45;&gt;sum</title>
<path fill="none" stroke="black" d="M198.17,-1048.33C211.98,-1048.46 230.35,-1048.63 246.65,-1048.78"/>
<polygon fill="black" stroke="black" points="246.51,-1052.27 256.55,-1048.87 246.58,-1045.27 246.51,-1052.27"/>
</g>
<!-- res -->
<g id="node34" class="node">
<title>res</title>
<polygon fill="none" stroke="black" points="307.24,-1013.13 259.24,-1013.13 259.24,-977.13 313.24,-977.13 313.24,-1007.13 307.24,-1013.13"/>
<polyline fill="none" stroke="black" points="307.24,-1013.13 307.24,-1007.13"/>
<polyline fill="none" stroke="black" points="313.24,-1007.13 307.24,-1007.13"/>
<text text-anchor="middle" x="286.24" y="-990.08" font-family="Times,serif" font-size="14.00">&lt;res&gt;</text>
</g>
<!-- 8&#45;&gt;res -->
<g id="edge18" class="edge">
<title>8&#45;&gt;res</title>
<path fill="none" stroke="black" d="M197.91,-987.08C212.14,-988.39 231.28,-990.16 248.02,-991.7"/>
<polygon fill="black" stroke="black" points="247.34,-995.15 257.62,-992.59 247.98,-988.18 247.34,-995.15"/>
</g>
<!-- mul -->
<g id="node35" class="node">
<title>mul</title>
<polygon fill="none" stroke="black" points="307.36,-959.13 259.11,-959.13 259.11,-923.13 313.36,-923.13 313.36,-953.13 307.36,-959.13"/>
<polyline fill="none" stroke="black" points="307.36,-959.13 307.36,-953.13"/>
<polyline fill="none" stroke="black" points="313.36,-953.13 307.36,-953.13"/>
<text text-anchor="middle" x="286.24" y="-936.08" font-family="Times,serif" font-size="14.00">&lt;mul&gt;</text>
</g>
<!-- 9&#45;&gt;mul -->
<g id="edge20" class="edge">
<title>9&#45;&gt;mul</title>
<path fill="none" stroke="black" d="M197.65,-924.99C211.86,-927.61 231.05,-931.14 247.85,-934.24"/>
<polygon fill="black" stroke="black" points="247.05,-937.65 257.52,-936.02 248.32,-930.77 247.05,-937.65"/>
</g>
<!-- div -->
<g id="node36" class="node">
<title>div</title>
<polygon fill="none" stroke="black" points="307.24,-905.13 259.24,-905.13 259.24,-869.13 313.24,-869.13 313.24,-899.13 307.24,-905.13"/>
<polyline fill="none" stroke="black" points="307.24,-905.13 307.24,-899.13"/>
<polyline fill="none" stroke="black" points="313.24,-899.13 307.24,-899.13"/>
<text text-anchor="middle" x="286.24" y="-882.08" font-family="Times,serif" font-size="14.00">&lt;div&gt;</text>
</g>
<!-- 10&#45;&gt;div -->
<g id="edge22" class="edge">
<title>10&#45;&gt;div</title>
<path fill="none" stroke="black" d="M199.21,-860.97C213.34,-865.26 231.89,-870.91 248.15,-875.85"/>
<polygon fill="black" stroke="black" points="246.93,-879.14 257.51,-878.7 248.97,-872.44 246.93,-879.14"/>
</g>
<!-- mod -->
<g id="node37" class="node">
<title>mod</title>
<polygon fill="none" stroke="black" points="308.86,-851.13 257.61,-851.13 257.61,-815.13 314.86,-815.13 314.86,-845.13 308.86,-851.13"/>
<polyline fill="none" stroke="black" points="308.86,-851.13 308.86,-845.13"/>
<polyline fill="none" stroke="black" points="314.86,-845.13 308.86,-845.13"/>
<text text-anchor="middle" x="286.24" y="-828.08" font-family="Times,serif" font-size="14.00">&lt;mod&gt;</text>
</g>
<!-- 11&#45;&gt;mod -->
<g id="edge24" class="edge">
<title>11&#45;&gt;mod</title>
<path fill="none" stroke="black" d="M198.17,-792.21C212.05,-798.73 230.52,-807.41 246.88,-815.1"/>
<polygon fill="black" stroke="black" points="245.35,-818.25 255.89,-819.34 248.33,-811.91 245.35,-818.25"/>
</g>
<!-- 13 -->
<g id="node14" class="node">
<title>13</title>
<ellipse fill="none" stroke="black" cx="286.24" cy="-773.13" rx="20.13" ry="20.13"/>
<ellipse fill="none" stroke="black" cx="286.24" cy="-773.13" rx="24.13" ry="24.13"/>
<text text-anchor="middle" x="286.24" y="-768.08" font-family="Times,serif" font-size="14.00">13</text>
</g>
<!-- 12&#45;&gt;13 -->
<g id="edge26" class="edge">
<title>12&#45;&gt;13</title>
<path fill="none" stroke="black" d="M193.21,-717.16C209.74,-727.21 235.57,-742.92 255.66,-755.14"/>
<polygon fill="black" stroke="black" points="253.62,-758 263.99,-760.2 257.26,-752.02 253.62,-758"/>
<text text-anchor="middle" x="228.74" y="-747.28" font-family="Times,serif" font-size="14.00">otro</text>
</g>
<!-- 14 -->
<g id="node15" class="node">
<title>14</title>
<ellipse fill="none" stroke="black" cx="286.24" cy="-707.13" rx="20.13" ry="20.13"/>
<ellipse fill="none" stroke="black" cx="286.24" cy="-707.13" rx="24.13" ry="24.13"/>
<text text-anchor="middle" x="286.24" y="-702.08" font-family="Times,serif" font-size="14.00">14</text>
</g>
<!-- 12&#45;&gt;14 -->
<g id="edge28" class="edge">
<title>12&#45;&gt;14</title>
<path fill="none" stroke="black" d="M196.13,-707.13C211.23,-707.13 232.58,-707.13 250.6,-707.13"/>
<polygon fill="black" stroke="black" points="250.34,-710.63 260.34,-707.13 250.34,-703.63 250.34,-710.63"/>
<text text-anchor="middle" x="228.74" y="-710.33" font-family="Times,serif" font-size="14.00">=</text>
</g>
<!-- myr -->
<g id="node38" class="node">
<title>myr</title>
<polygon fill="none" stroke="black" points="421.61,-791.13 372.61,-791.13 372.61,-755.13 427.61,-755.13 427.61,-785.13 421.61,-791.13"/>
<polyline fill="none" stroke="black" points="421.61,-791.13 421.61,-785.13"/>
<polyline fill="none" stroke="black" points="427.61,-785.13 421.61,-785.13"/>
<text text-anchor="middle" x="400.11" y="-768.08" font-family="Times,serif" font-size="14.00">&lt;myr&gt;</text>
</g>
<!-- 13&#45;&gt;myr -->
<g id="edge27" class="edge">
<title>13&#45;&gt;myr</title>
<path fill="none" stroke="black" d="M310.69,-773.13C325.27,-773.13 344.35,-773.13 361.05,-773.13"/>
<polygon fill="black" stroke="black" points="360.64,-776.63 370.64,-773.13 360.64,-769.63 360.64,-776.63"/>
</g>
<!-- myi -->
<g id="node39" class="node">
<title>myi</title>
<polygon fill="none" stroke="black" points="421.24,-725.13 372.99,-725.13 372.99,-689.13 427.24,-689.13 427.24,-719.13 421.24,-725.13"/>
<polyline fill="none" stroke="black" points="421.24,-725.13 421.24,-719.13"/>
<polyline fill="none" stroke="black" points="427.24,-719.13 421.24,-719.13"/>
<text text-anchor="middle" x="400.11" y="-702.08" font-family="Times,serif" font-size="14.00">&lt;myi&gt;</text>
</g>
<!-- 14&#45;&gt;myi -->
<g id="edge29" class="edge">
<title>14&#45;&gt;myi</title>
<path fill="none" stroke="black" d="M310.69,-707.13C325.37,-707.13 344.62,-707.13 361.41,-707.13"/>
<polygon fill="black" stroke="black" points="361.04,-710.63 371.04,-707.13 361.04,-703.63 361.04,-710.63"/>
</g>
<!-- 16 -->
<g id="node17" class="node">
<title>16</title>
<ellipse fill="none" stroke="black" cx="286.24" cy="-641.13" rx="20.13" ry="20.13"/>
<ellipse fill="none" stroke="black" cx="286.24" cy="-641.13" rx="24.13" ry="24.13"/>
<text text-anchor="middle" x="286.24" y="-636.08" font-family="Times,serif" font-size="14.00">16</text>
</g>
<!-- 15&#45;&gt;16 -->
<g id="edge31" class="edge">
<title>15&#45;&gt;16</title>
<path fill="none" stroke="black" d="M196.13,-641.13C211.23,-641.13 232.58,-641.13 250.6,-641.13"/>
<polygon fill="black" stroke="black" points="250.34,-644.63 260.34,-641.13 250.34,-637.63 250.34,-644.63"/>
<text text-anchor="middle" x="228.74" y="-644.33" font-family="Times,serif" font-size="14.00">otro</text>
</g>
<!-- 17 -->
<g id="node18" class="node">
<title>17</title>
<ellipse fill="none" stroke="black" cx="286.24" cy="-575.13" rx="20.13" ry="20.13"/>
<ellipse fill="none" stroke="black" cx="286.24" cy="-575.13" rx="24.13" ry="24.13"/>
<text text-anchor="middle" x="286.24" y="-570.08" font-family="Times,serif" font-size="14.00">17</text>
</g>
<!-- 15&#45;&gt;17 -->
<g id="edge33" class="edge">
<title>15&#45;&gt;17</title>
<path fill="none" stroke="black" d="M193.21,-631.11C209.74,-621.05 235.57,-605.34 255.66,-593.12"/>
<polygon fill="black" stroke="black" points="257.26,-596.25 263.99,-588.06 253.62,-590.26 257.26,-596.25"/>
<text text-anchor="middle" x="228.74" y="-619.18" font-family="Times,serif" font-size="14.00">=</text>
</g>
<!-- mnr -->
<g id="node40" class="node">
<title>mnr</title>
<polygon fill="none" stroke="black" points="421.61,-659.13 372.61,-659.13 372.61,-623.13 427.61,-623.13 427.61,-653.13 421.61,-659.13"/>
<polyline fill="none" stroke="black" points="421.61,-659.13 421.61,-653.13"/>
<polyline fill="none" stroke="black" points="427.61,-653.13 421.61,-653.13"/>
<text text-anchor="middle" x="400.11" y="-636.08" font-family="Times,serif" font-size="14.00">&lt;mnr&gt;</text>
</g>
<!-- 16&#45;&gt;mnr -->
<g id="edge32" class="edge">
<title>16&#45;&gt;mnr</title>
<path fill="none" stroke="black" d="M310.69,-641.13C325.27,-641.13 344.35,-641.13 361.05,-641.13"/>
<polygon fill="black" stroke="black" points="360.64,-644.63 370.64,-641.13 360.64,-637.63 360.64,-644.63"/>
</g>
<!-- mni -->
<g id="node41" class="node">
<title>mni</title>
<polygon fill="none" stroke="black" points="421.24,-593.13 372.99,-593.13 372.99,-557.13 427.24,-557.13 427.24,-587.13 421.24,-593.13"/>
<polyline fill="none" stroke="black" points="421.24,-593.13 421.24,-587.13"/>
<polyline fill="none" stroke="black" points="427.24,-587.13 421.24,-587.13"/>
<text text-anchor="middle" x="400.11" y="-570.08" font-family="Times,serif" font-size="14.00">&lt;mni&gt;</text>
</g>
<!-- 17&#45;&gt;mni -->
<g id="edge34" class="edge">
<title>17&#45;&gt;mni</title>
<path fill="none" stroke="black" d="M310.69,-575.13C325.37,-575.13 344.62,-575.13 361.41,-575.13"/>
<polygon fill="black" stroke="black" points="361.04,-578.63 371.04,-575.13 361.04,-571.63 361.04,-578.63"/>
</g>
<!-- 19 -->
<g id="node20" class="node">
<title>19</title>
<ellipse fill="none" stroke="black" cx="286.24" cy="-509.13" rx="20.13" ry="20.13"/>
<ellipse fill="none" stroke="black" cx="286.24" cy="-509.13" rx="24.13" ry="24.13"/>
<text text-anchor="middle" x="286.24" y="-504.08" font-family="Times,serif" font-size="14.00">19</text>
</g>
<!-- 18&#45;&gt;19 -->
<g id="edge36" class="edge">
<title>18&#45;&gt;19</title>
<path fill="none" stroke="black" d="M196.13,-509.13C211.23,-509.13 232.58,-509.13 250.6,-509.13"/>
<polygon fill="black" stroke="black" points="250.34,-512.63 260.34,-509.13 250.34,-505.63 250.34,-512.63"/>
<text text-anchor="middle" x="228.74" y="-512.33" font-family="Times,serif" font-size="14.00">otro</text>
</g>
<!-- 20 -->
<g id="node21" class="node">
<title>20</title>
<ellipse fill="none" stroke="black" cx="286.24" cy="-443.13" rx="20.13" ry="20.13"/>
<ellipse fill="none" stroke="black" cx="286.24" cy="-443.13" rx="24.13" ry="24.13"/>
<text text-anchor="middle" x="286.24" y="-438.08" font-family="Times,serif" font-size="14.00">20</text>
</g>
<!-- 18&#45;&gt;20 -->
<g id="edge38" class="edge">
<title>18&#45;&gt;20</title>
<path fill="none" stroke="black" d="M193.21,-499.11C209.74,-489.05 235.57,-473.34 255.66,-461.12"/>
<polygon fill="black" stroke="black" points="257.26,-464.25 263.99,-456.06 253.62,-458.26 257.26,-464.25"/>
<text text-anchor="middle" x="228.74" y="-487.18" font-family="Times,serif" font-size="14.00">=</text>
</g>
<!-- asg -->
<g id="node42" class="node">
<title>asg</title>
<polygon fill="none" stroke="black" points="421.11,-527.13 373.11,-527.13 373.11,-491.13 427.11,-491.13 427.11,-521.13 421.11,-527.13"/>
<polyline fill="none" stroke="black" points="421.11,-527.13 421.11,-521.13"/>
<polyline fill="none" stroke="black" points="427.11,-521.13 421.11,-521.13"/>
<text text-anchor="middle" x="400.11" y="-504.08" font-family="Times,serif" font-size="14.00">&lt;asg&gt;</text>
</g>
<!-- 19&#45;&gt;asg -->
<g id="edge37" class="edge">
<title>19&#45;&gt;asg</title>
<path fill="none" stroke="black" d="M310.69,-509.13C325.47,-509.13 344.89,-509.13 361.77,-509.13"/>
<polygon fill="black" stroke="black" points="361.44,-512.63 371.44,-509.13 361.44,-505.63 361.44,-512.63"/>
</g>
<!-- igu -->
<g id="node43" class="node">
<title>igu</title>
<polygon fill="none" stroke="black" points="421.11,-461.13 373.11,-461.13 373.11,-425.13 427.11,-425.13 427.11,-455.13 421.11,-461.13"/>
<polyline fill="none" stroke="black" points="421.11,-461.13 421.11,-455.13"/>
<polyline fill="none" stroke="black" points="427.11,-455.13 421.11,-455.13"/>
<text text-anchor="middle" x="400.11" y="-438.08" font-family="Times,serif" font-size="14.00">&lt;igu&gt;</text>
</g>
<!-- 20&#45;&gt;igu -->
<g id="edge39" class="edge">
<title>20&#45;&gt;igu</title>
<path fill="none" stroke="black" d="M310.69,-443.13C325.47,-443.13 344.89,-443.13 361.77,-443.13"/>
<polygon fill="black" stroke="black" points="361.44,-446.63 371.44,-443.13 361.44,-439.63 361.44,-446.63"/>
</g>
<!-- 22 -->
<g id="node23" class="node">
<title>22</title>
<ellipse fill="none" stroke="black" cx="286.24" cy="-377.13" rx="20.13" ry="20.13"/>
<ellipse fill="none" stroke="black" cx="286.24" cy="-377.13" rx="24.13" ry="24.13"/>
<text text-anchor="middle" x="286.24" y="-372.08" font-family="Times,serif" font-size="14.00">22</text>
</g>
<!-- 21&#45;&gt;22 -->
<g id="edge41" class="edge">
<title>21&#45;&gt;22</title>
<path fill="none" stroke="black" d="M196.13,-377.13C211.23,-377.13 232.58,-377.13 250.6,-377.13"/>
<polygon fill="black" stroke="black" points="250.34,-380.63 260.34,-377.13 250.34,-373.63 250.34,-380.63"/>
<text text-anchor="middle" x="228.74" y="-380.33" font-family="Times,serif" font-size="14.00">otro</text>
</g>
<!-- 23 -->
<g id="node24" class="node">
<title>23</title>
<ellipse fill="none" stroke="black" cx="286.24" cy="-311.13" rx="20.13" ry="20.13"/>
<ellipse fill="none" stroke="black" cx="286.24" cy="-311.13" rx="24.13" ry="24.13"/>
<text text-anchor="middle" x="286.24" y="-306.08" font-family="Times,serif" font-size="14.00">23</text>
</g>
<!-- 21&#45;&gt;23 -->
<g id="edge43" class="edge">
<title>21&#45;&gt;23</title>
<path fill="none" stroke="black" d="M193.21,-367.11C209.74,-357.05 235.57,-341.34 255.66,-329.12"/>
<polygon fill="black" stroke="black" points="257.26,-332.25 263.99,-324.06 253.62,-326.26 257.26,-332.25"/>
<text text-anchor="middle" x="228.74" y="-355.18" font-family="Times,serif" font-size="14.00">=</text>
</g>
<!-- not -->
<g id="node44" class="node">
<title>not</title>
<polygon fill="none" stroke="black" points="421.11,-395.13 373.11,-395.13 373.11,-359.13 427.11,-359.13 427.11,-389.13 421.11,-395.13"/>
<polyline fill="none" stroke="black" points="421.11,-395.13 421.11,-389.13"/>
<polyline fill="none" stroke="black" points="427.11,-389.13 421.11,-389.13"/>
<text text-anchor="middle" x="400.11" y="-372.08" font-family="Times,serif" font-size="14.00">&lt;not&gt;</text>
</g>
<!-- 22&#45;&gt;not -->
<g id="edge42" class="edge">
<title>22&#45;&gt;not</title>
<path fill="none" stroke="black" d="M310.69,-377.13C325.47,-377.13 344.89,-377.13 361.77,-377.13"/>
<polygon fill="black" stroke="black" points="361.44,-380.63 371.44,-377.13 361.44,-373.63 361.44,-380.63"/>
</g>
<!-- dif -->
<g id="node45" class="node">
<title>dif</title>
<polygon fill="none" stroke="black" points="421.11,-329.13 373.11,-329.13 373.11,-293.13 427.11,-293.13 427.11,-323.13 421.11,-329.13"/>
<polyline fill="none" stroke="black" points="421.11,-329.13 421.11,-323.13"/>
<polyline fill="none" stroke="black" points="427.11,-323.13 421.11,-323.13"/>
<text text-anchor="middle" x="400.11" y="-306.08" font-family="Times,serif" font-size="14.00">&lt;dif&gt;</text>
</g>
<!-- 23&#45;&gt;dif -->
<g id="edge44" class="edge">
<title>23&#45;&gt;dif</title>
<path fill="none" stroke="black" d="M310.69,-311.13C325.47,-311.13 344.89,-311.13 361.77,-311.13"/>
<polygon fill="black" stroke="black" points="361.44,-314.63 371.44,-311.13 361.44,-307.63 361.44,-314.63"/>
</g>
<!-- and -->
<g id="node46" class="node">
<title>and</title>
<polygon fill="none" stroke="black" points="307.24,-269.13 259.24,-269.13 259.24,-233.13 313.24,-233.13 313.24,-263.13 307.24,-269.13"/>
<polyline fill="none" stroke="black" points="307.24,-269.13 307.24,-263.13"/>
<polyline fill="none" stroke="black" points="313.24,-263.13 307.24,-263.13"/>
<text text-anchor="middle" x="286.24" y="-246.08" font-family="Times,serif" font-size="14.00">&lt;and&gt;</text>
</g>
<!-- 24&#45;&gt;and -->
<g id="edge46" class="edge">
<title>24&#45;&gt;and</title>
<path fill="none" stroke="black" d="M197.14,-303.09C211.71,-294.5 231.71,-282.7 248.97,-272.52"/>
<polygon fill="black" stroke="black" points="250.62,-275.61 257.46,-267.52 247.06,-269.58 250.62,-275.61"/>
</g>
<!-- or -->
<g id="node47" class="node">
<title>or</title>
<polygon fill="none" stroke="black" points="307.24,-215.13 259.24,-215.13 259.24,-179.13 313.24,-179.13 313.24,-209.13 307.24,-215.13"/>
<polyline fill="none" stroke="black" points="307.24,-215.13 307.24,-209.13"/>
<polyline fill="none" stroke="black" points="313.24,-209.13 307.24,-209.13"/>
<text text-anchor="middle" x="286.24" y="-192.08" font-family="Times,serif" font-size="14.00">&lt;or&gt;</text>
</g>
<!-- 25&#45;&gt;or -->
<g id="edge48" class="edge">
<title>25&#45;&gt;or</title>
<path fill="none" stroke="black" d="M197.91,-238.98C212.41,-232.03 232.02,-222.63 248.98,-214.51"/>
<polygon fill="black" stroke="black" points="250.26,-217.78 257.76,-210.3 247.23,-211.46 250.26,-217.78"/>
</g>
<!-- 26&#45;&gt;26 -->
<g id="edge50" class="edge">
<title>26&#45;&gt;26</title>
<path fill="none" stroke="black" d="M166.34,-170.18C164.42,-180.58 167.55,-190.26 175.73,-190.26 180.72,-190.26 183.82,-186.67 185.06,-181.5"/>
<polygon fill="black" stroke="black" points="188.56,-181.71 185.12,-171.69 181.56,-181.67 188.56,-181.71"/>
<text text-anchor="middle" x="175.73" y="-193.46" font-family="Times,serif" font-size="14.00">a&#45;zA&#45;Z0&#45;9_</text>
</g>
<!-- 27 -->
<g id="node28" class="node">
<title>27</title>
<ellipse fill="none" stroke="black" cx="286.24" cy="-137.13" rx="20.13" ry="20.13"/>
<ellipse fill="none" stroke="black" cx="286.24" cy="-137.13" rx="24.13" ry="24.13"/>
<text text-anchor="middle" x="286.24" y="-132.08" font-family="Times,serif" font-size="14.00">27</text>
</g>
<!-- 26&#45;&gt;27 -->
<g id="edge51" class="edge">
<title>26&#45;&gt;27</title>
<path fill="none" stroke="black" d="M196.13,-149.45C211.23,-147.36 232.58,-144.41 250.6,-141.92"/>
<polygon fill="black" stroke="black" points="250.93,-145.41 260.35,-140.57 249.97,-138.47 250.93,-145.41"/>
<text text-anchor="middle" x="228.74" y="-149.62" font-family="Times,serif" font-size="14.00">otro</text>
</g>
<!-- idt -->
<g id="node48" class="node">
<title>idt</title>
<polygon fill="none" stroke="black" points="421.11,-155.13 373.11,-155.13 373.11,-119.13 427.11,-119.13 427.11,-149.13 421.11,-155.13"/>
<polyline fill="none" stroke="black" points="421.11,-155.13 421.11,-149.13"/>
<polyline fill="none" stroke="black" points="427.11,-149.13 421.11,-149.13"/>
<text text-anchor="middle" x="400.11" y="-132.08" font-family="Times,serif" font-size="14.00">&lt;idt&gt;</text>
</g>
<!-- 27&#45;&gt;idt -->
<g id="edge52" class="edge">
<title>27&#45;&gt;idt</title>
<path fill="none" stroke="black" d="M310.69,-137.13C325.47,-137.13 344.89,-137.13 361.77,-137.13"/>
<polygon fill="black" stroke="black" points="361.44,-140.63 371.44,-137.13 361.44,-133.63 361.44,-140.63"/>
</g>
<!-- pap -->
<g id="node49" class="node">
<title>pap</title>
<polygon fill="none" stroke="black" points="307.24,-95.13 259.24,-95.13 259.24,-59.13 313.24,-59.13 313.24,-89.13 307.24,-95.13"/>
<polyline fill="none" stroke="black" points="307.24,-95.13 307.24,-89.13"/>
<polyline fill="none" stroke="black" points="313.24,-89.13 307.24,-89.13"/>
<text text-anchor="middle" x="286.24" y="-72.08" font-family="Times,serif" font-size="14.00">&lt;pap&gt;</text>
</g>
<!-- 28&#45;&gt;pap -->
<g id="edge54" class="edge">
<title>28&#45;&gt;pap</title>
<path fill="none" stroke="black" d="M200.01,-87.34C213.94,-85.67 231.97,-83.51 247.85,-81.61"/>
<polygon fill="black" stroke="black" points="247.93,-85.13 257.45,-80.46 247.1,-78.18 247.93,-85.13"/>
</g>
<!-- pci -->
<g id="node50" class="node">
<title>pci</title>
<polygon fill="none" stroke="black" points="307.24,-41.13 259.24,-41.13 259.24,-5.13 313.24,-5.13 313.24,-35.13 307.24,-41.13"/>
<polyline fill="none" stroke="black" points="307.24,-41.13 307.24,-35.13"/>
<polyline fill="none" stroke="black" points="313.24,-35.13 307.24,-35.13"/>
<text text-anchor="middle" x="286.24" y="-18.08" font-family="Times,serif" font-size="14.00">&lt;pci&gt;</text>
</g>
<!-- 29&#45;&gt;pci -->
<g id="edge56" class="edge">
<title>29&#45;&gt;pci</title>
<path fill="none" stroke="black" d="M200.28,-23.91C214.22,-23.79 232.2,-23.62 248.02,-23.47"/>
<polygon fill="black" stroke="black" points="247.6,-26.98 257.56,-23.39 247.53,-19.98 247.6,-26.98"/>
</g>
<!-- inicio -->
<g id="node51" class="node">
<title>inicio</title>
<ellipse fill="black" stroke="black" cx="1.8" cy="-667.13" rx="1.8" ry="1.8"/>
</g>
<!-- inicio&#45;&gt;0 -->
<g id="edge1" class="edge">
<title>inicio&#45;&gt;0</title>
<path fill="none" stroke="black" d="M3.75,-667.13C6.96,-667.13 17.8,-667.13 28.92,-667.13"/>
<polygon fill="black" stroke="black" points="28.79,-670.63 38.79,-667.13 28.78,-663.63 28.79,-670.63"/>
</g>
</g>
</svg>
